PathFileType	3	(X/Y/Z)	uphill_walking_calibrated.trc																																																																												
DataRate	CameraRate	NumFrames	NumMarkers	Units	OrigDataRate	OrigDataStartFrame	OrigNumFrames																																																																								
100	100	14	26	mm	100	2769	556																																																																								
Frame#	Time	RAcromium			LAcromium			C7			Clavicle			VSacral			RASIS			LASIS			RHip			LHip			RKneeLat			RKneeMed			LKneeMed			LKneeLat			LShankFront			RShankFront			RAnkleLat			RAnkleMed			LAnkleMed			LAnkleLat			LToeLat			LToeTip			RToeTip			RToeLat			RHeel			LHeel			T10		
		X1	Y1	Z1	X2	Y2	Z2	X3	Y3	Z3	X4	Y4	Z4	X5	Y5	Z5	X6	Y6	Z6	X7	Y7	Z7	X8	Y8	Z8	X9	Y9	Z9	X10	Y10	Z10	X11	Y11	Z11	X12	Y12	Z12	X13	Y13	Z13	X14	Y14	Z14	X15	Y15	Z15	X16	Y16	Z16	X17	Y17	Z17	X18	Y18	Z18	X19	Y19	Z19	X20	Y20	Z20	X21	Y21	Z21	X22	Y22	Z22	X23	Y23	Z23	X24	Y24	Z24	X25	Y25	Z25	X26	Y26	Z26
2769	27.68	1195.1879	1388.4817	-482.20175	1190.6801	1401.0817	-739.95007	1165.2015	1456.1853	-606.24536	1215.1417	1260.6637	-623.50555	789.16638	1069.6	-610.92615	953.06427	1009.0317	-481.29355	968.55542	993.88757	-739.44946	878.14569	957.34381	-425.08762	873.47186	934.16321	-795.88159	1051.7174	540.12354	-457.7836	1036.0127	530.35394	-578.78345	755.74121	494.84863	-627.74268	779.76868	491.49442	-739.63965	767.78101	391.87515	-688.1676	1096.9579	463.40891	-509.02258	781.18396	187.94038	-505.02609	815.09271	189.39183	-585.13782	550.27844	113.53019	-625.13031	523.74603	92.86174	-708.51709	673.81311	34.610203	-735.23309	736.3692	40.090988	-663.91876	947.05591	48.046459	-523.862	871.30316	71.000702	-454.2453	675.31183	156.56673	-562.53107	440.42007	27.443375	-667.90381	921.85602	1246.9307	-606.28479
2770	27.69	1192.9512	1385.4919	-481.8432	1189.0957	1398.6007	-739.71747	1163.295	1453.5292	-605.56934	1213.1279	1257.9349	-623.33344	786.77716	1066.5522	-610.6037	951.54248	1006.6358	-481.35352	965.20441	991.48291	-740.1759	877.10126	955.68555	-424.32245	869.93231	931.63324	-796.02173	1059.4696	543.14233	-457.16599	1044.8048	533.427	-577.84131	746.9137	493.84225	-628.01349	770.88483	490.39658	-740.20038	758.34308	391.19769	-688.3374	1107.4017	467.73712	-508.3465	802.97778	180.57028	-502.94452	836.0636	183.53206	-583.33832	540.31714	113.39267	-624.89697	513.55792	92.962822	-708.32397	663.38989	34.516075	-735.09058	725.9751	39.690945	-663.92346	975.93964	49.757721	-522.84955	899.0025	68.407394	-452.9581	698.07263	144.22002	-559.53137	430.19315	27.707771	-667.79962	919.85327	1244.3259	-606.59387
2771	27.7	1191.0355	1382.4614	-481.47952	1187.3688	1395.7521	-739.50598	1161.5127	1450.4344	-605.09491	1211.0785	1254.9001	-623.10901	784.4646	1063.2327	-610.1748	950.15259	1003.8141	-481.25037	962.67603	988.79785	-740.60168	875.91144	953.51251	-423.68478	866.4057	928.92346	-796.14795	1066.5807	545.65015	-456.70346	1052.7267	536.14728	-577.15491	738.49347	492.62994	-628.1604	762.38208	488.8981	-740.68182	749.41071	390.37259	-688.66351	1117.2523	471.85254	-508.14212	824.48029	173.33653	-500.65387	856.52869	177.72469	-581.2301	530.21869	113.55254	-624.58014	503.33673	93.227501	-708.06628	653.24536	34.48468	-735.0943	715.86194	39.247593	-663.92657	1004.3975	51.504089	-522.1402	926.15991	66.52668	-451.53839	720.50812	132.22374	-555.99268	419.92499	27.922745	-667.64624	917.80389	1241.4838	-606.83398
2772	27.71	1189.2921	1379.3062	-480.95667	1185.5739	1392.7485	-739.24915	1159.7004	1447.1255	-604.63281	1208.9868	1251.6859	-622.89111	782.19385	1059.745	-609.62274	948.80396	1000.7453	-481.19687	960.14313	985.79468	-740.98749	874.80389	950.81128	-423.10132	863.14374	925.63611	-796.16254	1073.1055	547.72583	-456.4808	1059.8469	538.29956	-576.55908	730.64056	491.16077	-628.49835	754.16626	487.28723	-741.2403	740.68591	389.02838	-689.04083	1125.8995	475.53583	-508.43369	845.51801	166.36462	-498.30344	876.14789	172.2269	-579.10266	520.36932	113.17574	-624.4328	493.23196	93.22464	-707.78809	642.95654	34.703945	-734.82275	705.87695	38.866821	-664.23212	1030.0417	52.832596	-522.01776	952.27179	64.495018	-450.39154	742.79309	120.89395	-552.07062	409.61737	28.164303	-667.5097	915.74304	1238.2737	-606.91943
2773	27.72	1186.9694	1375.5675	-480.77618	1183.6071	1389.5479	-739.02704	1158.006	1443.4867	-604.30005	1206.9713	1248.2937	-622.70764	779.99835	1056.1382	-609.00415	946.79315	997.63177	-481.52151	957.69122	982.77997	-741.26428	873.60126	947.78503	-422.69641	859.75415	922.67999	-796.11639	1079.15	549.35834	-456.38934	1065.8265	539.99927	-576.24603	723.25128	489.46326	-628.74426	746.31445	485.44092	-741.84808	731.43231	387.29141	-689.28235	1134.4818	478.79565	-508.75699	864.74451	159.59889	-495.7471	894.61951	166.92123	-577.16656	510.40475	113.11932	-624.26892	483.00494	93.397087	-707.75	632.6662	34.643383	-734.9082	696.33636	38.927742	-664.95184	1052.2686	53.150898	-522.27661	977.44391	62.517448	-449.2619	763.6673	110.31346	-548.2359	399.37515	28.46142	-667.45813	913.72321	1234.9139	-606.87408
2774	27.73	1185.0221	1372.2872	-480.49332	1181.45	1386.3153	-738.78302	1155.9017	1440.0586	-603.60291	1204.9301	1244.7893	-622.54199	777.9621	1052.3867	-608.302	945.18646	994.02087	-481.40341	955.28082	979.54034	-741.53107	872.28461	944.52032	-422.24808	856.48224	919.68524	-795.98706	1084.7866	550.54034	-456.49698	1070.6312	540.85388	-576.30371	716.4682	487.49631	-629.117	738.87225	483.56339	-742.56311	723.68463	385.57669	-689.96021	1143.5724	481.72879	-508.81653	884.11914	153.08568	-493.03522	912.41455	161.51842	-574.92059	500.47684	113.2504	-624.30249	472.99197	93.509445	-707.77551	622.4212	34.562481	-735.02423	685.6629	38.768162	-663.98694	1075.2374	55.522919	-522.10162	1000.905	61.105652	-447.94836	784.54456	99.088196	-544.72455	389.09372	28.85557	-667.44946	911.73126	1231.3854	-606.83746
2775	27.74	1183.0391	1368.4868	-479.90027	1179.4082	1383.0957	-738.53967	1154.0813	1436.3457	-603.06287	1202.9313	1241.3362	-622.28369	776.04401	1048.5428	-607.44873	944.8092	989.93396	-480.59976	953.1463	976.29596	-741.42255	871.22418	941.05396	-421.94409	853.49365	916.60718	-795.84784	1089.6824	551.3172	-456.76071	1074.4526	541.27869	-576.51013	710.21741	485.38589	-629.55261	731.74603	481.61691	-743.37848	716.27893	383.65991	-690.81189	1150.2736	483.85156	-509.60529	901.82965	147.08321	-490.76883	929.047	156.56233	-572.79688	490.60959	113.46452	-624.48096	463.15942	93.489006	-707.88507	612.19202	34.392239	-735.22699	675.52655	38.499222	-664.20581	1096.5101	57.090359	-521.13416	1022.4464	60.098385	-446.50903	803.60895	89.071877	-541.09869	378.90683	29.410633	-667.50787	909.80054	1227.7284	-606.73962
2776	27.75	1181.1195	1364.9781	-479.54837	1177.4584	1379.9885	-738.34131	1152.2605	1432.6298	-602.49463	1200.9828	1237.8994	-622.15112	774.20996	1044.6506	-606.49341	943.54639	986.24426	-480.25082	951.16931	972.8623	-741.23114	870.12927	937.51959	-421.42786	850.69122	913.59729	-795.67847	1094.0514	551.66412	-457.31082	1077.9574	541.07349	-576.0069	704.52722	483.18073	-630.18591	725.1405	479.70615	-744.14325	709.06946	381.57312	-691.63171	1156.0543	485.2287	-510.38998	917.8465	141.4341	-488.72766	944.16351	151.57835	-570.92694	480.99081	113.72073	-624.74799	453.21347	93.981483	-708.12958	602.04059	34.306278	-735.49109	665.59198	38.058651	-664.73212	1115.0588	58.550121	-519.93005	1041.2308	59.165989	-444.74982	821.21069	79.74929	-538.12311	368.7207	30.125685	-667.54047	907.82373	1224.0282	-606.4809
2777	27.76	1179.3904	1361.7188	-479.19965	1175.5835	1376.8544	-738.17438	1150.6289	1428.9502	-602.15466	1199.1655	1234.5687	-621.92749	772.57208	1040.7268	-605.38416	940.96045	982.74933	-480.3078	949.33661	969.6123	-740.85077	869.19855	933.8894	-420.60657	848.40424	910.55334	-795.45325	1098.1532	551.57812	-458.29089	1080.6375	539.76184	-575.63593	699.18262	480.95947	-630.79962	718.91394	477.89789	-745.21539	702.24127	379.47821	-692.73553	1160.4462	485.96078	-511.32608	931.67072	136.19157	-486.96094	957.31989	146.76218	-569.35791	471.57404	114.09456	-625.03552	443.55606	94.221832	-708.36853	592.04871	34.102043	-735.88788	655.48944	37.62759	-665.01904	1131.17	59.675198	-518.29688	1057.5065	58.526279	-442.78915	836.67609	71.336922	-535.54224	358.69244	31.104641	-667.59631	905.95325	1220.3481	-606.1283
2778	27.77	1177.5597	1358.1937	-478.83221	1173.9194	1373.7712	-737.88135	1148.902	1425.421	-601.7182	1197.421	1231.3665	-621.71259	771.08899	1036.7515	-604.19733	939.71198	979.10895	-479.56406	947.7005	966.0401	-740.22778	868.47125	930.21436	-419.47748	846.65399	907.47247	-795.14038	1101.2971	550.75696	-458.93301	1082.3281	537.9516	-575.72174	694.14661	478.73111	-631.36401	713.16699	476.24991	-746.5498	696.45233	377.74817	-693.34534	1164.2303	485.88751	-512.10693	943.54846	131.58749	-485.19141	968.19574	142.10037	-567.94873	462.17578	114.70503	-625.41882	433.94275	94.741356	-708.77026	581.849	33.984386	-736.13965	645.49634	37.159332	-665.26556	1144.2426	59.898243	-516.82605	1070.902	57.644066	-441.20584	849.57648	63.737526	-533.17212	348.66458	32.197536	-667.66785	904.13367	1216.7205	-605.64777
2779	27.78	1176.2284	1355.3645	-478.41299	1172.275	1370.833	-737.53204	1146.9919	1422.2679	-601.23267	1195.7869	1228.2726	-621.35913	769.73639	1032.7491	-602.90735	938.84247	975.49939	-478.60226	946.46698	962.7384	-739.24017	867.98853	926.55115	-418.42337	845.32819	904.17963	-794.6123	1103.8778	549.27325	-459.64664	1083.3868	535.63037	-576.0788	689.61511	476.30457	-631.61578	707.2041	474.53561	-746.93738	690.15521	375.69522	-694.17944	1166.2888	484.86395	-513.40015	952.18634	127.40414	-483.79968	976.45868	137.82799	-566.58002	452.80719	115.38169	-626.01886	424.45654	95.260086	-709.20959	571.75098	33.837414	-736.41199	635.48285	36.691261	-665.61877	1153.951	59.189304	-515.76208	1081.1294	56.27486	-439.84631	859.18091	57.556416	-530.87756	338.59958	33.486053	-667.93445	902.41113	1213.2449	-605.02448
2780	27.79	1174.4467	1352.5709	-478.38766	1170.6882	1367.8848	-737.09601	1145.4509	1419.119	-601.02539	1194.2686	1225.3395	-621.01514	768.69104	1028.6709	-601.56097	938.99713	972.02924	-476.99146	945.31055	959.2832	-738.39813	867.84094	923.32916	-417.34842	842.341	901.85675	-792.89532	1105.7877	547.10645	-460.4408	1083.9343	532.7135	-576.7804	684.90875	474.01755	-632.02289	702.03961	472.63354	-746.96051	683.85095	373.37378	-694.68481	1169.1455	483.10202	-514.17267	958.08032	123.55184	-482.53134	981.42194	133.82059	-565.62402	443.52133	116.34887	-626.6048	415.104	96.278175	-709.8429	561.52069	33.408489	-736.90228	625.23566	36.287132	-665.58978	1160.2473	57.484894	-515.2641	1088.1064	54.165237	-439.10913	865.3999	52.429371	-528.70392	328.55524	35.417427	-668.42023	900.88672	1209.91	-604.37933
2781	27.8	1173.3158	1350.4377	-477.96423	1169.1022	1365.1927	-736.75195	1144.1285	1416.3157	-601.1084	1192.895	1222.6663	-620.54712	767.89142	1024.6935	-600.22791	938.78888	968.94403	-475.70721	944.51312	956.08136	-737.34106	868.0105	920.23938	-416.21356	841.23645	898.51416	-791.84442	1106.9647	544.24078	-461.3309	1085.2197	529.00879	-576.91974	680.76147	473.13367	-630.1889	697.23529	470.87796	-746.88	678.11133	371.66107	-694.81128	1170.2101	480.21823	-515.71594	960.92865	119.92627	-481.50848	983.58795	130.11981	-564.81866	434.32965	117.52327	-627.12585	405.76556	97.7173	-710.49353	551.3847	33.25441	-737.22107	614.92822	35.230274	-666.10797	1163.1913	54.814407	-515.71204	1091.6117	51.596584	-438.85938	868.15662	48.213192	-526.62018	318.62146	37.786701	-668.87488	899.55865	1206.7211	-603.60339
2782	27.81	1171.8662	1348.7656	-477.88663	1167.4822	1362.7141	-736.45093	1142.7778	1413.8796	-600.98895	1191.6953	1220.3883	-620.01898	767.48645	1020.9413	-598.8689	937.87872	966.3006	-474.76935	944.0282	952.94818	-736.37445	868.68762	917.05389	-415.06448	840.3653	895.11267	-790.75525	1107.4922	540.61157	-462.31345	1084.7046	525.10443	-577.62018	675.57764	470.62424	-629.7403	692.94354	469.29614	-746.38635	672.4483	369.81085	-694.40674	1169.3613	476.37933	-517.76434	960.86597	116.57333	-480.6445	982.78601	126.46267	-564.12958	425.44241	119.10637	-627.58759	396.72882	99.447411	-710.81946	541.07812	33.198658	-737.38892	605.00354	34.909996	-666.38208	1162.661	51.013016	-516.8186	1091.9288	48.322563	-439.26157	867.37445	45.022449	-524.63971	308.7179	40.712109	-669.2879	898.4068	1203.7522	-602.83496
